<?xml version="1.0" encoding="utf-8"?>
<!-- Generator: Adobe Illustrator 24.0.1, SVG Export Plug-In . SVG Version: 6.00 Build 0)  -->
<svg version="1.1" id="Layer_1" xmlns="http://www.w3.org/2000/svg" xmlns:xlink="http://www.w3.org/1999/xlink" x="0px" y="0px"
	 viewBox="0 0 80 80" enable-background="new 0 0 80 80" xml:space="preserve">
<path opacity="0.4" fill="#820020" d="M31.5,41.1c0.5-0.6,0.5-1.5,0-2.2l-10.9-15c-0.3-0.4-0.2-1,0.2-1.3l3.2-2.3l13.1,18.1
	c0.7,1,0.7,2.3,0,3.2L24,59.7l-3.2-2.3c-0.4-0.3-0.5-0.9-0.2-1.3L31.5,41.1z"/>
<path opacity="0.6" fill="#820020" d="M21,13.8l5.1-3.7c0.6-0.4,1.5-0.3,1.9,0.3l20.3,28c0.7,1,0.7,2.3,0,3.2L28,69.6
	c-0.4,0.6-1.3,0.8-1.9,0.3L21,66.2c-0.6-0.4-0.8-1.3-0.3-1.9l16.4-22.6c0.7-1,0.7-2.3,0-3.2L20.7,15.8C20.2,15.1,20.4,14.3,21,13.8z
	"/>
<path fill="#820020" d="M24.1,6.2l6.6-4.8c0.8-0.6,1.9-0.4,2.5,0.4l26.3,36.2c0.9,1.3,0.9,2.9,0,4.2L33.3,78.3
	c-0.6,0.8-1.7,1-2.5,0.4l-6.6-4.8c-0.8-0.6-1-1.7-0.4-2.5L45,42.1c0.9-1.3,0.9-2.9,0-4.2L23.7,8.7C23.2,7.9,23.3,6.7,24.1,6.2z"/>
</svg>
