<?xml version="1.0" encoding="utf-8"?>
<!-- Generator: Adobe Illustrator 24.0.1, SVG Export Plug-In . SVG Version: 6.00 Build 0)  -->
<svg version="1.1" id="Layer_1" xmlns="http://www.w3.org/2000/svg" xmlns:xlink="http://www.w3.org/1999/xlink" x="0px" y="0px"
	 viewBox="0 0 80 80" enable-background="new 0 0 80 80" xml:space="preserve">
<path fill="#4E0013" d="M50.6,54.9v-3.4c0-0.5,0.4-1,1-1h20.6c0.5,0,1,0.4,1,1v3.4c0,0.5-0.4,1-1,1H51.6
	C51,55.9,50.6,55.5,50.6,54.9z"/>
<path fill="#4E0013" d="M54.9,73.2h-3.4c-0.5,0-1-0.4-1-1V51.6c0-0.5,0.4-1,1-1h3.4c0.5,0,1,0.4,1,1v20.6
	C55.9,72.7,55.5,73.2,54.9,73.2z"/>
<path fill="#34000D" d="M55.3,58.2v-2.2c0-0.4,0.3-0.7,0.7-0.7h13.8c0.4,0,0.7,0.3,0.7,0.7v2.2c0,0.4-0.3,0.7-0.7,0.7H55.9
	C55.6,58.8,55.3,58.5,55.3,58.2z"/>
<path fill="#34000D" d="M58.2,70.4h-2.2c-0.4,0-0.7-0.3-0.7-0.7V55.9c0-0.4,0.3-0.7,0.7-0.7h2.2c0.4,0,0.7,0.3,0.7,0.7v13.8
	C58.8,70.1,58.5,70.4,58.2,70.4z"/>
<path fill="#820020" d="M44,50.1v-4.8c0-0.8,0.6-1.4,1.4-1.4h29.2c0.8,0,1.4,0.6,1.4,1.4v4.8c0,0.8-0.6,1.4-1.4,1.4H45.4
	C44.6,51.5,44,50.9,44,50.1z"/>
<path fill="#820020" d="M50.1,76h-4.8c-0.8,0-1.4-0.6-1.4-1.4V45.4c0-0.8,0.6-1.4,1.4-1.4h4.8c0.8,0,1.4,0.6,1.4,1.4v29.2
	C51.5,75.4,50.9,76,50.1,76z"/>
<path fill="#4E0013" d="M29.4,25.1v3.4c0,0.5-0.4,1-1,1H7.8c-0.5,0-1-0.4-1-1v-3.4c0-0.5,0.4-1,1-1h20.6
	C29,24.1,29.4,24.5,29.4,25.1z"/>
<path fill="#4E0013" d="M25.1,6.8h3.4c0.5,0,1,0.4,1,1v20.6c0,0.5-0.4,1-1,1h-3.4c-0.5,0-1-0.4-1-1V7.8C24.1,7.3,24.5,6.8,25.1,6.8z
	"/>
<path fill="#34000D" d="M24.7,21.8v2.2c0,0.4-0.3,0.7-0.7,0.7H10.3c-0.4,0-0.7-0.3-0.7-0.7v-2.2c0-0.4,0.3-0.7,0.7-0.7h13.8
	C24.4,21.2,24.7,21.5,24.7,21.8z"/>
<path fill="#34000D" d="M21.8,9.6h2.2c0.4,0,0.7,0.3,0.7,0.7v13.8c0,0.4-0.3,0.7-0.7,0.7h-2.2c-0.4,0-0.7-0.3-0.7-0.7V10.3
	C21.2,9.9,21.5,9.6,21.8,9.6z"/>
<path fill="#820020" d="M36,29.9v4.8c0,0.8-0.6,1.4-1.4,1.4H5.4C4.6,36,4,35.4,4,34.6v-4.8c0-0.8,0.6-1.4,1.4-1.4h29.2
	C35.4,28.5,36,29.1,36,29.9z"/>
<path fill="#820020" d="M29.9,4h4.8C35.4,4,36,4.6,36,5.4v29.2c0,0.8-0.6,1.4-1.4,1.4h-4.8c-0.8,0-1.4-0.6-1.4-1.4V5.4
	C28.5,4.6,29.1,4,29.9,4z"/>
</svg>
