<?xml version="1.0" encoding="utf-8"?>
<!-- Generator: Adobe Illustrator 24.0.1, SVG Export Plug-In . SVG Version: 6.00 Build 0)  -->
<svg version="1.1" id="Layer_1" xmlns="http://www.w3.org/2000/svg" xmlns:xlink="http://www.w3.org/1999/xlink" x="0px" y="0px"
	 viewBox="0 0 80 80" enable-background="new 0 0 80 80" xml:space="preserve">
<path fill="#4E0013" d="M66.8,61.3v4.2c0,0.7-0.5,1.2-1.2,1.2H39.7c-0.7,0-1.2-0.5-1.2-1.2v-4.2c0-0.7,0.5-1.2,1.2-1.2h25.8
	C66.2,60.1,66.8,60.7,66.8,61.3z"/>
<path fill="#4E0013" d="M61.3,38.5h4.2c0.7,0,1.2,0.5,1.2,1.2v25.8c0,0.7-0.5,1.2-1.2,1.2h-4.2c-0.7,0-1.2-0.5-1.2-1.2V39.7
	C60.1,39.1,60.7,38.5,61.3,38.5z"/>
<path fill="#34000D" d="M60.9,57.3v2.8c0,0.4-0.4,0.8-0.8,0.8H42.9c-0.4,0-0.8-0.4-0.8-0.8v-2.8c0-0.4,0.4-0.8,0.8-0.8h17.2
	C60.5,56.5,60.9,56.8,60.9,57.3z"/>
<path fill="#34000D" d="M57.3,42.1h2.8c0.4,0,0.8,0.4,0.8,0.8v17.2c0,0.4-0.4,0.8-0.8,0.8h-2.8c-0.4,0-0.8-0.4-0.8-0.8V42.9
	C56.5,42.4,56.8,42.1,57.3,42.1z"/>
<path fill="#820020" d="M75,67.3v6c0,1-0.8,1.7-1.7,1.7H36.7c-1,0-1.7-0.8-1.7-1.7v-6c0-1,0.8-1.7,1.7-1.7h36.5
	C74.2,65.6,75,66.4,75,67.3z"/>
<path fill="#820020" d="M67.3,35h6c1,0,1.7,0.8,1.7,1.7v36.5c0,1-0.8,1.7-1.7,1.7h-6c-1,0-1.7-0.8-1.7-1.7V36.7
	C65.6,35.8,66.4,35,67.3,35z"/>
<path fill="#4E0013" d="M13.2,17.7v-4.2c0-0.7,0.5-1.2,1.2-1.2h25.8c0.7,0,1.2,0.5,1.2,1.2v4.2c0,0.7-0.5,1.2-1.2,1.2H14.5
	C13.8,18.9,13.2,18.3,13.2,17.7z"/>
<path fill="#4E0013" d="M18.7,40.5h-4.2c-0.7,0-1.2-0.5-1.2-1.2V13.5c0-0.7,0.5-1.2,1.2-1.2h4.2c0.7,0,1.2,0.5,1.2,1.2v25.8
	C19.9,39.9,19.3,40.5,18.7,40.5z"/>
<path fill="#34000D" d="M19.1,21.7v-2.8c0-0.4,0.4-0.8,0.8-0.8h17.2c0.4,0,0.8,0.4,0.8,0.8v2.8c0,0.4-0.4,0.8-0.8,0.8H19.9
	C19.5,22.5,19.1,22.2,19.1,21.7z"/>
<path fill="#34000D" d="M22.7,36.9h-2.8c-0.4,0-0.8-0.4-0.8-0.8V18.9c0-0.4,0.4-0.8,0.8-0.8h2.8c0.4,0,0.8,0.4,0.8,0.8v17.2
	C23.5,36.6,23.2,36.9,22.7,36.9z"/>
<path fill="#820020" d="M5,11.7v-6C5,4.8,5.8,4,6.7,4h36.5c1,0,1.7,0.8,1.7,1.7v6c0,1-0.8,1.7-1.7,1.7H6.7C5.8,13.4,5,12.6,5,11.7z"
	/>
<path fill="#820020" d="M12.7,44h-6c-1,0-1.7-0.8-1.7-1.7V5.7C5,4.8,5.8,4,6.7,4h6c1,0,1.7,0.8,1.7,1.7v36.5
	C14.4,43.2,13.6,44,12.7,44z"/>
</svg>
