<?xml version="1.0" encoding="utf-8"?>
<!-- Generator: Adobe Illustrator 24.0.1, SVG Export Plug-In . SVG Version: 6.00 Build 0)  -->
<svg version="1.1" id="Layer_1" xmlns="http://www.w3.org/2000/svg" xmlns:xlink="http://www.w3.org/1999/xlink" x="0px" y="0px"
	 viewBox="0 0 80 80" enable-background="new 0 0 80 80" xml:space="preserve">
<path fill="#34000D" d="M49.1,41.1c-0.5-0.6-0.5-1.5,0-2.2l10.9-15c0.3-0.4,0.2-1-0.2-1.3l-3.2-2.3L43.5,38.4c-0.7,1-0.7,2.3,0,3.2
	l13.1,18.1l3.2-2.3c0.4-0.3,0.5-0.9,0.2-1.3L49.1,41.1z"/>
<path fill="#4E0013" d="M59.6,13.8l-5.1-3.7c-0.6-0.4-1.5-0.3-1.9,0.3l-20.3,28c-0.7,1-0.7,2.3,0,3.2l20.3,28
	c0.4,0.6,1.3,0.8,1.9,0.3l5.1-3.7c0.6-0.4,0.8-1.3,0.3-1.9L43.5,41.6c-0.7-1-0.7-2.3,0-3.2l16.4-22.6C60.4,15.1,60.2,14.3,59.6,13.8
	z"/>
<path fill="#820020" d="M56.5,6.2l-6.6-4.8c-0.8-0.6-1.9-0.4-2.5,0.4L21.1,37.9c-0.9,1.3-0.9,2.9,0,4.2l26.3,36.2
	c0.6,0.8,1.7,1,2.5,0.4l6.6-4.8c0.8-0.6,1-1.7,0.4-2.5L35.6,42.1c-0.9-1.3-0.9-2.9,0-4.2L56.9,8.7C57.5,7.9,57.3,6.7,56.5,6.2z"/>
</svg>
