<?xml version="1.0" encoding="utf-8"?>
<!-- Generator: Adobe Illustrator 24.0.1, SVG Export Plug-In . SVG Version: 6.00 Build 0)  -->
<svg version="1.1" id="Layer_1" xmlns="http://www.w3.org/2000/svg" xmlns:xlink="http://www.w3.org/1999/xlink" x="0px" y="0px"
	 viewBox="0 0 800 800" enable-background="new 0 0 800 800" xml:space="preserve">
<path fill="#F40B3D" d="M694.9,785.6L694.9,785.6c-10.6,7.7-25.4,5.4-33.3-5.1L396.3,427.3l53.6-38.6l250.8,363.7
	C708.1,763.2,705.5,777.9,694.9,785.6z"/>
<path fill="#B22039" d="M532.8,236.4c-0.7-47.4-15.7-92.9-43.5-131.5c-27.4-38-65.1-66.5-109.2-82.3c-43-15.4-89.1-17.8-133.3-7
	l-3.6,0.9l2.4,10.6l-50.1,17.6l-26.4,17l9.1,12.6l35-21.4l81.8-18.4l17.7,21.9l1.7,0.1C369.2,60.3,419,88,451,132.5
	c44.1,61.2,46,144.8,4.7,207.9l-2.1,3.2l39.5,25.8l2.1-3.2C520.5,327.6,533.5,282.7,532.8,236.4z"/>
<path fill="none" stroke="#F40B3D" stroke-width="47.0805" stroke-linecap="round" stroke-miterlimit="10" d="M475.5,353.3
	c-13.6,20.7-31.1,39.4-52.4,54.8c-92.9,66.9-222.5,45.8-289.3-47.1S88.2,139.3,180.8,71.6c12.2-8.8,136-89.4,162.9,16.3
	c9.8,38.5-0.4,99.7-88.6,161.3s-96.4,140.5-96.4,140.5"/>
</svg>
