<?xml version="1.0" encoding="utf-8"?>
<!-- Generator: Adobe Illustrator 24.0.1, SVG Export Plug-In . SVG Version: 6.00 Build 0)  -->
<svg version="1.1" id="Layer_1" xmlns="http://www.w3.org/2000/svg" xmlns:xlink="http://www.w3.org/1999/xlink" x="0px" y="0px"
	 viewBox="0 0 970 320" enable-background="new 0 0 970 320" xml:space="preserve">
<path fill="#F40B3D" d="M224.8,286.7L224.8,286.7c-3.2,2.4-7.8,1.6-10.2-1.6l-81-107.9l16.4-11.8l76.6,111.1
	C228.8,279.9,228,284.4,224.8,286.7z"/>
<path fill="#9B1831" d="M175.3,119c-0.2-14.5-4.8-28.4-13.3-40.2c-8.4-11.6-19.9-20.3-33.4-25.1c-13.1-4.7-27.2-5.4-40.7-2.1
	l-1.1,0.3l0.7,3.2l-15.3,5.4l-8.1,5.2l2.8,3.8l10.7-6.5l25-5.6L108,64l0.5,0c16.7,1.2,32,9.6,41.7,23.2
	c13.5,18.7,14.1,44.2,1.4,63.5l-0.6,1l12.1,7.9l0.6-1C171.5,146.8,175.5,133.1,175.3,119z"/>
<path fill="none" stroke="#F40B3D" stroke-width="14.3822" stroke-linecap="round" stroke-miterlimit="10" d="M157.8,154.7
	c-4.2,6.3-9.5,12-16,16.7c-28.4,20.4-68,14-88.4-14.4S39.5,89.3,67.8,68.6c3.7-2.7,41.5-27.3,49.8,5c3,11.8-0.1,30.5-27.1,49.3
	S61,165.8,61,165.8"/>
<g id="text_dark">
	<path fill="#9B1831" d="M279.2,181.7c-10.3,0-19.4-2.3-27.3-6.8c-7.9-4.5-14.1-10.7-18.6-18.7c-4.5-8-6.8-17.1-6.8-27.4
		c0-10.4,2.1-19.6,6.4-27.5c4.2-7.9,10.1-14.2,17.6-18.7c7.5-4.6,16.1-6.8,25.9-6.8c9.6,0,18,2.2,25.2,6.6
		c7.2,4.4,12.7,10.4,16.6,18.2c3.9,7.7,5.9,16.6,5.9,26.4c0,2-0.6,3.6-1.9,4.9c-1.3,1.2-2.9,1.8-4.9,1.8h-80.9v-12.2h82.4l-8.2,5.9
		c0.1-7.4-1.2-14-4-19.8c-2.8-5.8-6.8-10.4-11.9-13.7c-5.1-3.3-11.3-4.9-18.4-4.9c-7.2,0-13.6,1.7-19,5.1
		c-5.5,3.4-9.7,8.2-12.7,14.2c-3,6-4.5,12.9-4.5,20.6c0,7.7,1.7,14.6,5,20.5c3.4,6,8,10.7,13.8,14.1c5.8,3.4,12.6,5.1,20.2,5.1
		c4.6,0,9.2-0.8,13.8-2.4c4.6-1.6,8.3-3.6,11.1-6c1.4-1.1,3-1.7,4.8-1.8c1.8-0.1,3.3,0.4,4.6,1.4c1.6,1.5,2.5,3.2,2.6,4.9
		c0.1,1.8-0.7,3.3-2.2,4.6c-4.2,3.6-9.5,6.5-16,8.8C291.4,180.6,285.2,181.7,279.2,181.7z"/>
	<path fill="#9B1831" d="M394.1,181.9c-9,0-17.1-1.9-24.2-5.6c-7.1-3.7-12.7-9.2-16.8-16.5c-4.1-7.2-6.2-16-6.2-26.4V84
		c0-2,0.7-3.7,2.1-5.1c1.4-1.4,3.1-2.1,5.1-2.1c2.2,0,3.9,0.7,5.3,2.1c1.4,1.4,2.1,3.1,2.1,5.1v49.5c0,7.9,1.5,14.3,4.5,19.4
		c3,5.1,7,8.9,12.2,11.4c5.1,2.5,10.9,3.8,17.4,3.8c6.2,0,11.8-1.2,16.8-3.6c5-2.4,9-5.7,11.9-9.9c2.9-4.2,4.4-8.9,4.4-14.3h10.5
		c-0.4,8-2.6,15.1-6.6,21.4s-9.4,11.2-16.1,14.8C409.9,180.1,402.4,181.9,394.1,181.9z M436,180.8c-2.2,0-3.9-0.7-5.2-2
		c-1.3-1.3-2-3.1-2-5.4V84c0-2.2,0.7-3.9,2-5.2s3.1-2,5.2-2c2.2,0,3.9,0.7,5.3,2c1.4,1.3,2.1,3.1,2.1,5.2v89.4
		c0,2.3-0.7,4.1-2.1,5.4C439.9,180.1,438.1,180.8,436,180.8z"/>
	<path fill="#9B1831" d="M471,93.3c-1.9,0-3.5-0.6-4.8-1.8c-1.3-1.2-1.9-2.7-1.9-4.5c0-1.9,0.6-3.5,1.9-4.7c1.3-1.2,2.9-1.8,4.8-1.8
		h48.5c1.9,0,3.5,0.6,4.8,1.8c1.3,1.2,1.9,2.8,1.9,4.7c0,1.8-0.6,3.3-1.9,4.5c-1.3,1.2-2.9,1.8-4.8,1.8H471z M518.4,180.8
		c-6.7,0-12.7-1.6-18-4.8c-5.3-3.2-9.4-7.5-12.5-13c-3-5.5-4.6-11.8-4.6-18.9v-93c0-2.2,0.7-3.9,2-5.3c1.3-1.4,3.1-2.1,5.2-2.1
		c2.2,0,3.9,0.7,5.3,2.1c1.4,1.4,2.1,3.2,2.1,5.3v93c0,6.5,1.9,11.8,5.7,15.9c3.8,4.1,8.7,6.2,14.6,6.2h5.1c2,0,3.7,0.7,4.9,2.1
		c1.3,1.4,1.9,3.2,1.9,5.3c0,2.2-0.8,3.9-2.3,5.2c-1.5,1.3-3.4,2-5.7,2H518.4z"/>
	<path fill="#9B1831" d="M601.3,181.7c-10.3,0-19.4-2.3-27.3-6.8c-7.9-4.5-14.1-10.7-18.6-18.7c-4.5-8-6.8-17.1-6.8-27.4
		c0-10.4,2.1-19.6,6.4-27.5c4.2-7.9,10.1-14.2,17.6-18.7c7.5-4.6,16.1-6.8,25.9-6.8c9.6,0,18,2.2,25.2,6.6
		c7.2,4.4,12.7,10.4,16.6,18.2c3.9,7.7,5.9,16.6,5.9,26.4c0,2-0.6,3.6-1.9,4.9c-1.3,1.2-2.9,1.8-4.9,1.8h-80.9v-12.2h82.4l-8.2,5.9
		c0.1-7.4-1.2-14-4-19.8c-2.8-5.8-6.8-10.4-11.9-13.7c-5.1-3.3-11.3-4.9-18.4-4.9c-7.2,0-13.6,1.7-19,5.1
		c-5.5,3.4-9.7,8.2-12.7,14.2c-3,6-4.5,12.9-4.5,20.6c0,7.7,1.7,14.6,5,20.5c3.4,6,8,10.7,13.8,14.1c5.8,3.4,12.6,5.1,20.2,5.1
		c4.6,0,9.2-0.8,13.8-2.4c4.6-1.6,8.3-3.6,11.1-6c1.4-1.1,3-1.7,4.8-1.8c1.8-0.1,3.3,0.4,4.6,1.4c1.6,1.5,2.5,3.2,2.6,4.9
		c0.1,1.8-0.7,3.3-2.2,4.6c-4.2,3.6-9.5,6.5-16,8.8C613.5,180.6,607.3,181.7,601.3,181.7z"/>
	<path fill="#9B1831" d="M678.4,180.8c-2.3,0-4.1-0.7-5.4-2c-1.3-1.3-2-3.1-2-5.2V84.2c0-2.3,0.7-4.1,2-5.4s3.1-2,5.4-2
		c2.2,0,3.9,0.7,5.2,2c1.3,1.3,2,3.1,2,5.4v89.4c0,2.2-0.7,3.9-2,5.2C682.3,180.1,680.5,180.8,678.4,180.8z M760.2,180.8
		c-2.2,0-3.9-0.7-5.3-2.1c-1.4-1.4-2.1-3.1-2.1-5.1v-49.5c0-7.9-1.5-14.3-4.5-19.4c-3-5.1-7-8.9-12.2-11.4
		c-5.1-2.5-10.9-3.8-17.4-3.8c-6.2,0-11.8,1.2-16.8,3.6c-5,2.4-9,5.7-11.9,9.9c-2.9,4.2-4.4,8.9-4.4,14.3h-10.5
		c0.3-8,2.4-15.1,6.5-21.4c4.1-6.3,9.4-11.2,16.2-14.8c6.7-3.6,14.2-5.4,22.4-5.4c9,0,17.1,1.9,24.2,5.6c7.1,3.7,12.7,9.2,16.8,16.5
		c4.1,7.2,6.2,16,6.2,26.4v49.5c0,2-0.7,3.7-2.1,5.1C763.9,180.1,762.2,180.8,760.2,180.8z"/>
	<path fill="#9B1831" d="M822.2,180.8c-5.1,0-9.6-1.4-13.6-4.2c-4-2.8-7.1-6.7-9.3-11.6c-2.2-4.9-3.3-10.7-3.3-17.1V39.4
		c0-2.2,0.7-3.9,2-5.2c1.3-1.3,3.1-2,5.2-2c2.2,0,3.9,0.7,5.2,2c1.3,1.3,2,3.1,2,5.2v108.4c0,5.5,1.1,9.9,3.3,13.3
		c2.2,3.4,5,5.1,8.5,5.1h4.8c1.9,0,3.4,0.7,4.6,2c1.1,1.3,1.7,3.1,1.7,5.2c0,2.2-0.8,3.9-2.4,5.2c-1.6,1.3-3.6,2-6.2,2H822.2z"/>
	<path fill="#9B1831" d="M892.4,177.6c-1.9,0.9-3.7,1-5.3,0.5c-1.6-0.6-3-1.8-4-3.7l-42.4-87.9c-0.9-1.9-1-3.7-0.4-5.3
		c0.6-1.6,1.9-2.9,3.8-3.8c1.9-0.9,3.7-1,5.3-0.5c1.6,0.6,2.9,1.8,3.8,3.7l41.7,87.9c1,1.9,1.3,3.7,1,5.3
		C895.4,175.4,894.3,176.7,892.4,177.6z M871.3,226.1c-1,0-2.2-0.3-3.4-0.8c-4.3-1.9-5.5-4.9-3.6-9.1l61.4-135.5
		c1.9-4.1,4.9-5.2,9.1-3.4c4.3,1.8,5.5,4.8,3.6,8.9l-61.6,135.5C875.5,224.6,873.7,226.1,871.3,226.1z"/>
</g>
<g id="text">
	<path fill="#F40B3D" d="M278.2,181.7c-10.3,0-19.4-2.3-27.3-6.8c-7.9-4.5-14.1-10.7-18.6-18.7c-4.5-8-6.8-17.1-6.8-27.4
		c0-10.4,2.1-19.6,6.4-27.5c4.2-7.9,10.1-14.2,17.6-18.7c7.5-4.6,16.1-6.8,25.9-6.8c9.6,0,18,2.2,25.2,6.6
		c7.2,4.4,12.7,10.4,16.6,18.2c3.9,7.7,5.9,16.6,5.9,26.4c0,2-0.6,3.6-1.9,4.9c-1.3,1.2-2.9,1.8-4.9,1.8h-44.8
		c-3.4,0-6.1-2.7-6.1-6.1v0c0-3.4,2.7-6.1,6.1-6.1h46.3l-8.2,5.9c0.1-7.4-1.2-14-4-19.8c-2.8-5.8-6.8-10.4-11.9-13.7
		c-5.1-3.3-11.3-4.9-18.4-4.9c-7.2,0-13.6,1.7-19,5.1c-5.5,3.4-9.7,8.2-12.7,14.2c-3,6-4.5,12.9-4.5,20.6c0,7.7,1.7,14.6,5,20.5
		c3.4,6,8,10.7,13.8,14.1c5.8,3.4,12.6,5.1,20.2,5.1c4.6,0,9.2-0.8,13.8-2.4c4.6-1.6,8.3-3.6,11.1-6c1.4-1.1,3-1.7,4.8-1.8
		c1.8-0.1,3.3,0.4,4.6,1.4c1.6,1.5,2.5,3.2,2.6,4.9c0.1,1.8-0.7,3.3-2.2,4.6c-4.2,3.6-9.5,6.5-16,8.8
		C290.4,180.6,284.2,181.7,278.2,181.7z"/>
	<path fill="#F40B3D" d="M600.2,181.7c-10.3,0-19.4-2.3-27.3-6.8c-7.9-4.5-14.1-10.7-18.6-18.7c-4.5-8-6.8-17.1-6.8-27.4
		c0-10.4,2.1-19.6,6.4-27.5c4.2-7.9,10.1-14.2,17.6-18.7c7.5-4.6,16.1-6.8,25.9-6.8c9.6,0,18,2.2,25.2,6.6
		c7.2,4.4,12.7,10.4,16.6,18.2c3.9,7.7,5.9,16.6,5.9,26.4c0,2-0.6,3.6-1.9,4.9c-1.3,1.2-2.9,1.8-4.9,1.8h-44.8
		c-3.4,0-6.1-2.7-6.1-6.1v0c0-3.4,2.7-6.1,6.1-6.1h46.3l-8.2,5.9c0.1-7.4-1.2-14-4-19.8c-2.8-5.8-6.8-10.4-11.9-13.7
		c-5.1-3.3-11.3-4.9-18.4-4.9c-7.2,0-13.6,1.7-19,5.1c-5.5,3.4-9.7,8.2-12.7,14.2c-3,6-4.5,12.9-4.5,20.6c0,7.7,1.7,14.6,5,20.5
		c3.4,6,8,10.7,13.8,14.1c5.8,3.4,12.6,5.1,20.2,5.1c4.6,0,9.2-0.8,13.8-2.4c4.6-1.6,8.3-3.6,11.1-6c1.4-1.1,3-1.7,4.8-1.8
		c1.8-0.1,3.3,0.4,4.6,1.4c1.6,1.5,2.5,3.2,2.6,4.9c0.1,1.8-0.7,3.3-2.2,4.6c-4.2,3.6-9.5,6.5-16,8.8
		C612.4,180.6,606.2,181.7,600.2,181.7z"/>
	<path fill="#F40B3D" d="M367.4,166.5c-3,3.2-8.1,3.1-10.9-0.3c-1.6-1.9-3.1-4.1-4.4-6.3c-4.1-7.2-6.2-16-6.2-26.4V84
		c0-2,0.7-3.7,2.1-5.1c1.4-1.4,3.1-2.1,5.1-2.1c2.2,0,3.9,0.7,5.3,2.1c1.4,1.4,2.1,3.1,2.1,5.1v49.5c0,7.9,1.5,14.3,4.5,19.4
		c0.8,1.4,1.7,2.7,2.7,4c2.3,2.8,2.2,6.9-0.3,9.6C367.5,166.4,367.4,166.5,367.4,166.5z M435,180.8c-2.2,0-3.9-0.7-5.2-2
		c-1.3-1.3-2-3.1-2-5.4V84c0-2.2,0.7-3.9,2-5.2s3.1-2,5.2-2c2.2,0,3.9,0.7,5.3,2c1.4,1.3,2.1,3.1,2.1,5.2v89.4
		c0,2.3-0.7,4.1-2.1,5.4C438.9,180.1,437.1,180.8,435,180.8z"/>
	<path fill="#F40B3D" d="M745,91c3-3.2,8.1-3.1,10.9,0.3c1.6,1.9,3.1,4.1,4.4,6.3c4.1,7.2,6.2,16,6.2,26.4v49.5c0,2-0.7,3.7-2.1,5.1
		c-1.4,1.4-3.1,2.1-5.1,2.1c-2.2,0-3.9-0.7-5.3-2.1c-1.4-1.4-2.1-3.1-2.1-5.1v-49.5c0-7.9-1.5-14.3-4.5-19.4c-0.8-1.4-1.7-2.7-2.7-4
		c-2.3-2.8-2.2-6.9,0.3-9.6C744.9,91.1,744.9,91.1,745,91z M677.4,76.7c2.2,0,3.9,0.7,5.2,2c1.3,1.3,2,3.1,2,5.4v89.4
		c0,2.2-0.7,3.9-2,5.2s-3.1,2-5.2,2c-2.2,0-3.9-0.7-5.3-2c-1.4-1.3-2.1-3.1-2.1-5.2V84.2c0-2.3,0.7-4.1,2.1-5.4
		C673.4,77.4,675.2,76.7,677.4,76.7z"/>
	<path fill="#F40B3D" d="M470,93.3c-1.9,0-3.5-0.6-4.8-1.8c-1.3-1.2-1.9-2.7-1.9-4.5c0-1.9,0.6-3.5,1.9-4.7c1.3-1.2,2.9-1.8,4.8-1.8
		h48.5c1.9,0,3.5,0.6,4.8,1.8c1.3,1.2,1.9,2.8,1.9,4.7c0,1.8-0.6,3.3-1.9,4.5c-1.3,1.2-2.9,1.8-4.8,1.8H470z M489.7,133.2
		c-4,0-7.3-3.3-7.3-7.3V51.1c0-2.2,0.7-3.9,2-5.3c1.3-1.4,3.1-2.1,5.2-2.1c2.2,0,3.9,0.7,5.3,2.1c1.4,1.4,2.1,3.2,2.1,5.3v74.8
		C497,129.9,493.7,133.2,489.7,133.2L489.7,133.2z"/>
	<path fill="#F40B3D" d="M802.1,133.2c-4,0-7.2-3.2-7.2-7.2V39.4c0-2.2,0.7-3.9,2-5.2c1.3-1.3,3.1-2,5.2-2c2.2,0,3.9,0.7,5.2,2
		c1.3,1.3,2,3.1,2,5.2V126C809.4,130,806.1,133.2,802.1,133.2L802.1,133.2z"/>
	<path fill="#F40B3D" d="M864.4,122.3c-3.3,1.7-7.4,0.3-9-3.1l-17.8-36.8c-0.9-1.9-1-3.7-0.4-5.3c0.6-1.6,1.9-2.9,3.8-3.8
		c1.9-0.9,3.7-1,5.3-0.5c1.6,0.6,2.9,1.8,3.8,3.7l17.5,36.8c1.6,3.3,0.2,7.3-3.1,8.9C864.6,122.2,864.5,122.2,864.4,122.3z
		 M870.3,226.1c-1,0-2.2-0.3-3.4-0.8c-4.3-1.9-5.5-4.9-3.6-9.1l61.4-135.5c1.9-4.1,4.9-5.2,9.1-3.4c4.3,1.8,5.5,4.8,3.6,8.9
		l-61.6,135.5C874.5,224.6,872.7,226.1,870.3,226.1z"/>
</g>
</svg>
